# xmcd
#
# Track frame offsets:
#	150
#	14497
#	27912
#	34950
#	47357
#	55880
#	69360
#	84005
#	97765
#	125092
#	136127
#	149895
#	167935
#	187792
#	201822
#	217437
#	233777
#	245165
#	259617
#	274087
#	288565
#	305550
#	329837
#	337872
#
# Disc length: 4642 seconds
#
# Revision: 0
# Processed by: cddbd v1.5.2PL0 Copyright (c) Steve Scherf et al.
# Submitted via: audiograbber 1.83.01
#
DISCID=6d122018
DTITLE=Bud and Travis - The Best of Bud and Travis
DYEAR=1998
DGENRE=Country
TTITLE0=Rayito de Luna
TTITLE1=Los Dos
TTITLE2=Myra
TTITLE3=They call the wind Maria
TTITLE4=Cloudy summer afternoon
TTITLE5=Guess I'll go home
TTITLE6=La vaquilla Colorado
TTITLE7=Bonsoir Dame
TTITLE8=Malaguena Salerosa
TTITLE9=Come To The Dance (Vamos Al Baile) 
TTITLE10=Mexican Wedding Dance (La Bamba) 
TTITLE11=Sloop John B 
TTITLE12=Golden Apples Of The Sun 
TTITLE13=Haiti 
TTITLE14=Joey, Joey, Joey 
TTITLE15=Cielito Lindo Son Juasteco 
TTITLE16=So Long, Stay Well 
TTITLE17=Amor De La Calle 
TTITLE18=Better Than Anything 
TTITLE19=Sin TI 
TTITLE20=No Me Quieras Tanto 
TTITLE21=Caminante Del Mayab 
TTITLE22=Angelico 
TTITLE23=South Wind 
EXTD=
EXTT0=
EXTT1=
EXTT2=
EXTT3=
EXTT4=
EXTT5=
EXTT6=
EXTT7=
EXTT8=
EXTT9=
EXTT10=
EXTT11=
EXTT12=
EXTT13=
EXTT14=
EXTT15=
EXTT16=
EXTT17=
EXTT18=
EXTT19=
EXTT20=
EXTT21=
EXTT22=
EXTT23=
PLAYORDER=
